<?xml version="1.0" encoding="UTF-8"?>
<svg xmlns="http://www.w3.org/2000/svg" xmlns:xlink="http://www.w3.org/1999/xlink" width="295.29pt" height="365pt" viewBox="0 0 295.29 365" version="1.1">
<defs>
<clipPath id="clip1">
  <path d="M 1 289 L 295.289063 289 L 295.289063 365 L 1 365 Z M 1 289 "/>
</clipPath>
</defs>
<g id="surface1">
<path style=" stroke:none;fill-rule:nonzero;fill:rgb(92.89856%,12.199402%,14.099121%);fill-opacity:1;" d="M 111.558594 128.507813 C 84.566406 112.921875 71.402344 81.152344 79.472656 51.042969 C 87.539063 20.9375 114.820313 0 145.992188 0 C 177.160156 0 204.445313 20.9375 212.511719 51.042969 C 220.578125 81.152344 207.417969 112.921875 180.425781 128.507813 L 159.691406 92.59375 C 170.429688 86.394531 175.664063 73.753906 172.457031 61.777344 C 169.246094 49.796875 158.390625 41.46875 145.992188 41.46875 C 133.59375 41.46875 122.738281 49.796875 119.527344 61.777344 C 116.320313 73.753906 121.554688 86.394531 132.292969 92.59375 L 111.558594 128.507813 "/>
<path style=" stroke:none;fill-rule:nonzero;fill:rgb(22.399902%,32.499695%,64.299011%);fill-opacity:1;" d="M 259.03125 145.179688 C 286.027344 160.765625 299.1875 192.539063 291.117188 222.644531 C 283.050781 252.753906 255.769531 273.6875 224.597656 273.6875 C 193.429688 273.6875 166.144531 252.753906 158.078125 222.644531 C 150.011719 192.539063 163.171875 160.765625 190.164063 145.179688 L 210.898438 181.09375 C 200.160156 187.296875 194.925781 199.933594 198.132813 211.910156 C 201.34375 223.890625 212.199219 232.21875 224.597656 232.21875 C 236.996094 232.21875 247.851563 223.890625 251.0625 211.910156 C 254.269531 199.933594 249.035156 187.296875 238.296875 181.09375 L 259.03125 145.179688 "/>
<path style=" stroke:none;fill-rule:nonzero;fill:rgb(41.19873%,74.099731%,27.099609%);fill-opacity:1;" d="M 137.734375 204.820313 C 137.734375 235.992188 116.800781 263.273438 86.691406 271.34375 C 56.585938 279.410156 24.8125 266.25 9.226563 239.253906 C -6.355469 212.261719 -1.867188 178.164063 20.171875 156.125 C 42.214844 134.085938 76.308594 129.597656 103.304688 145.179688 L 82.566406 181.09375 C 71.828125 174.894531 58.265625 176.679688 49.496094 185.449219 C 40.726563 194.21875 38.941406 207.78125 45.140625 218.519531 C 51.34375 229.257813 63.980469 234.496094 75.960938 231.285156 C 87.9375 228.074219 96.265625 217.222656 96.265625 204.820313 L 137.734375 204.820313 "/>
<g clip-path="url(#clip1)" clip-rule="nonzero">
<path style=" stroke:none;fill-rule:nonzero;fill:rgb(1.998901%,2.398682%,2.69928%);fill-opacity:1;" d="M 242.199219 290.363281 C 245.964844 290.367188 249.730469 290.261719 253.496094 290.417969 C 257.15625 302.039063 261.183594 313.542969 264.878906 325.152344 C 266.320313 329.613281 267.335938 334.199219 268.824219 338.644531 C 270.492188 333.847656 271.558594 328.867188 273.191406 324.0625 C 276.804688 312.832031 280.515625 301.640625 284.125 290.414063 C 287.84375 290.253906 291.570313 290.394531 295.292969 290.34375 L 295.292969 291.574219 C 289.175781 310.226563 283.195313 328.929688 277.199219 347.628906 C 271.605469 347.742188 265.996094 347.757813 260.402344 347.617188 C 254.4375 328.5 248.191406 309.472656 242.199219 290.363281 Z M 201.554688 292.03125 C 206.734375 290.289063 212.257813 290.042969 217.675781 289.851563 C 222.925781 289.875 228.414063 289.921875 233.320313 292.039063 C 235.8125 293.078125 237.535156 295.351563 238.375 297.863281 C 239.746094 301.617188 239.785156 305.679688 239.816406 309.628906 C 236.199219 309.628906 232.585938 309.640625 228.976563 309.625 C 228.917969 306.847656 229.132813 303.730469 227.410156 301.367188 C 225.671875 299.589844 222.953125 299.59375 220.644531 299.320313 C 215.945313 299.234375 211.058594 298.929688 206.558594 300.554688 C 204.9375 301.066406 204.097656 302.6875 203.769531 304.25 C 202.84375 308.441406 202.839844 312.769531 202.84375 317.042969 C 202.898438 322.761719 202.8125 328.558594 204.03125 334.179688 C 204.351563 336.238281 206.246094 337.503906 208.144531 337.957031 C 212.535156 339.050781 217.117188 338.890625 221.601563 338.625 C 223.941406 338.316406 226.789063 338.164063 228.257813 336.019531 C 229.824219 333.460938 229.5625 330.308594 229.476563 327.433594 C 233.125 327.417969 236.769531 327.421875 240.417969 327.433594 C 240.375 331.976563 240.296875 336.667969 238.644531 340.96875 C 237.792969 343.21875 236.039063 345.125 233.765625 345.984375 C 229.300781 347.777344 224.40625 347.890625 219.667969 348.175781 C 214.175781 348.269531 208.613281 348.136719 203.246094 346.855469 C 200.097656 346.035156 196.65625 344.59375 195.195313 341.464844 C 193.335938 337.324219 192.992188 332.722656 192.511719 328.269531 C 192.113281 322.386719 191.855469 316.492188 192 310.597656 C 192.28125 305.828125 192.714844 300.800781 195.289063 296.640625 C 196.660156 294.328125 199.0625 292.878906 201.554688 292.03125 Z M 161.296875 309.570313 C 164.71875 307.195313 169.140625 306.867188 173.164063 307.332031 C 176.589844 307.691406 180.21875 308.996094 182.238281 311.953125 C 184.035156 314.40625 184.535156 317.53125 184.558594 320.5 C 184.542969 329.566406 184.5625 338.628906 184.554688 347.695313 C 181.417969 347.703125 178.289063 347.703125 175.164063 347.695313 C 175.148438 339.117188 175.175781 330.546875 175.148438 321.972656 C 175.054688 320.101563 175.132813 317.933594 173.722656 316.492188 C 172.21875 314.863281 169.859375 314.546875 167.757813 314.5625 C 165.21875 314.546875 162.46875 314.984375 160.511719 316.738281 C 158.597656 318.371094 157.871094 321 157.863281 323.433594 C 157.847656 331.519531 157.867188 339.609375 157.851563 347.691406 C 154.722656 347.703125 151.59375 347.703125 148.46875 347.695313 C 148.464844 334.347656 148.464844 321 148.46875 307.652344 C 151.542969 307.640625 154.625 307.648438 157.699219 307.652344 C 157.683594 309.996094 157.453125 312.324219 157.382813 314.667969 C 158.390625 312.773438 159.449219 310.777344 161.296875 309.570313 Z M 115.167969 315.886719 C 113.101563 317.773438 113.304688 320.894531 113.214844 323.457031 C 119.027344 323.488281 124.84375 323.472656 130.660156 323.460938 C 130.652344 321.160156 130.875 318.648438 129.628906 316.59375 C 128.40625 314.933594 126.117188 314.824219 124.238281 314.621094 C 121.210938 314.578125 117.867188 314.246094 115.167969 315.886719 Z M 109.386719 309.59375 C 114.246094 307.097656 119.9375 307.007813 125.273438 307.261719 C 129.710938 307.632813 135.101563 308.375 137.546875 312.621094 C 140.308594 317.746094 139.855469 323.777344 140.242188 329.40625 L 113.195313 329.40625 C 113.511719 332.308594 113.136719 335.4375 114.597656 338.097656 C 115.851563 340.195313 118.503906 340.628906 120.75 340.75 C 123.523438 340.769531 126.507813 340.996094 129.0625 339.707031 C 130.527344 338.5625 130.539063 336.523438 130.726563 334.84375 C 133.890625 334.839844 137.054688 334.839844 140.21875 334.84375 C 140.097656 338.144531 139.675781 341.84375 137.023438 344.167969 C 133.042969 347.734375 127.347656 348.105469 122.257813 348.207031 C 117.761719 348.070313 113.015625 347.84375 108.992188 345.628906 C 105.734375 343.707031 104.695313 339.757813 104.121094 336.277344 C 103.394531 331.105469 103.214844 325.835938 103.832031 320.644531 C 104.335938 316.546875 105.4375 311.726563 109.386719 309.59375 Z M 75.929688 314.683594 C 73.574219 314.863281 71.015625 316.03125 70.347656 318.492188 C 69.085938 322.835938 69.308594 327.433594 69.492188 331.902344 C 69.796875 334.8125 70.160156 338.566406 73.257813 339.871094 C 76.589844 341.160156 80.4375 341.09375 83.808594 339.988281 C 86.726563 338.960938 87.152344 335.53125 87.457031 332.878906 C 87.765625 328.488281 87.871094 324.011719 87.011719 319.675781 C 86.722656 317.992188 85.855469 316.257813 84.214844 315.550781 C 81.625 314.410156 78.699219 314.46875 75.929688 314.683594 Z M 72.710938 309.519531 C 76.25 307.269531 80.644531 306.90625 84.726563 307.277344 C 88.539063 307.601563 92.773438 308.898438 94.8125 312.40625 C 97.25 316.8125 97.390625 322.019531 97.558594 326.933594 C 97.449219 331.984375 97.355469 337.261719 95.269531 341.957031 C 94.078125 344.808594 91.339844 346.679688 88.40625 347.414063 C 83.917969 348.515625 78.984375 348.636719 74.65625 346.847656 C 72.320313 345.933594 70.703125 343.945313 69.363281 341.90625 L 69.363281 365 L 59.476563 365 C 59.480469 345.886719 59.464844 326.769531 59.480469 307.65625 C 62.679688 307.640625 65.878906 307.640625 69.070313 307.65625 C 68.964844 309.625 68.855469 311.585938 68.800781 313.558594 C 69.984375 312.109375 71.089844 310.519531 72.710938 309.519531 Z M 20.632813 299.511719 C 18.179688 299.878906 15.125 300.082031 13.648438 302.367188 C 12.355469 305.773438 12.402344 309.492188 12.140625 313.074219 C 12.015625 319.46875 11.695313 325.917969 12.683594 332.261719 C 13.046875 334.402344 13.800781 336.953125 16.179688 337.582031 C 21.335938 339.160156 26.851563 338.890625 32.167969 338.589844 C 34.816406 338.183594 38.332031 337.957031 39.621094 335.183594 C 41.097656 330.960938 40.996094 326.402344 41.179688 321.992188 C 41.121094 315.792969 41.464844 309.476563 39.980469 303.410156 C 39.625 301.253906 37.390625 300.335938 35.5 299.957031 C 30.613281 298.996094 25.570313 299.113281 20.632813 299.511719 Z M 19.667969 290.199219 C 25.496094 289.675781 31.390625 289.679688 37.1875 290.511719 C 40.765625 291.144531 44.554688 292.070313 47.238281 294.675781 C 50.050781 297.8125 50.746094 302.171875 51.363281 306.195313 C 52.375 314.535156 52.257813 322.992188 51.363281 331.339844 C 50.765625 335.410156 50.175781 339.8125 47.507813 343.125 C 44.59375 346.082031 40.292969 346.921875 36.347656 347.542969 C 30.523438 348.269531 24.617188 348.4375 18.769531 347.855469 C 14.808594 347.449219 10.675781 346.753906 7.304688 344.492188 C 5.125 343.109375 3.953125 340.667969 3.15625 338.296875 C 1.558594 333.363281 1.355469 328.125 1.140625 322.984375 C 1.113281 316.191406 1.242188 309.328125 2.566406 302.644531 C 3.285156 299.523438 4.15625 296.09375 6.789063 294.011719 C 10.503906 291.316406 15.222656 290.664063 19.667969 290.199219 "/>
</g>
</g>
</svg>
